<svg xmlns="http://www.w3.org/2000/svg" width="12" height="24" viewBox="0 0 12 24">
  <path fill="#34599D" d="M2.59301237,4.64898236 C2.59301237,5.25399654 2.59301237,7.95196627 2.59301237,7.95196627 L0,7.95196627 L0,11.993977 L2.59408753,11.993977 L2.59408753,24 L7.91827007,24 L7.91827007,11.995031 L11.4934393,11.995031 C11.4934393,11.995031 11.8254481,10.0560143 11.9861305,7.94102442 C11.5191356,7.94102442 7.93434368,7.94102442 7.93434368,7.94102442 C7.93434368,7.94102442 7.93434368,5.58902803 7.93434368,5.17800587 C7.93434368,4.76301855 8.51697182,4.2059879 9.09320276,4.2059879 C9.66728339,4.2059879 10.8754385,4.2059879 12,4.2059879 C12,3.65698798 12,1.75496273 12,0 C10.5005309,0 8.80398525,0 8.05212724,0 C2.46017659,-7.13270997e-16 2.59301237,4.04702989 2.59301237,4.64898236 Z"/>
</svg>
