<svg xmlns="http://www.w3.org/2000/svg" width="24" height="24" viewBox="0 0 24 24">
  <path fill="#007AAA" d="M3.00048914 0C4.62880613 0 6 1.37118694 6 2.99949569 6 4.71347936 4.54308224 6.04185311 3.00048914 5.99899138 1.4150341 6.04185311.000978282694 4.71347936.000978282694 2.99949569-.041883661 1.32832521 1.32935875 0 3.00048914 0M4.16671387 24L.833333333 24C.3750118 24 0 23.6307603 0 23.1794931L0 8.82050686C0 8.36923971.333333333 8 .791654866 8L4.16666667 8C4.6249882 8 5 8.36923971 5 8.82050686L5 23.2205301C5.0000472 23.6307603 4.6250354 24 4.16671387 24M23.9580415 12.6099846C23.9580415 9.46499615 21.6483237 7 18.5407276 7L17.6588371 7C15.9790683 7 14.341258 7.80747882 13.4593675 9.125 13.1654199 9.42248459 13.0394015 9.55001926 13.0394015 9.55001926L13.0394015 7.85003852C13.0394015 7.68004044 12.7874124 7.42501926 12.6194356 7.42501926L8.41996599 7.42501926C8.25198911 7.42501926 8 7.59501733 8 7.80752696L8 23.6600039C8 23.8300019 8.25198911 24 8.41996599 24L13.039354 24C13.2073309 24 13.45932 23.8300019 13.45932 23.6600039L13.45932 14.4799634C13.45932 12.9074692 14.6351581 11.589948 16.1889562 11.5474846 16.9868344 11.5474846 17.7007481 11.8449692 18.2466848 12.397475 18.7506155 12.9074692 18.9605985 13.629973 18.9605985 14.4374519L18.9605985 23.5749326C18.9605985 23.7449307 19.2125876 23.9999519 19.3805644 23.9999519L23.580034 23.9999519C23.7480109 23.9999519 24 23.7449307 24 23.5749326L24 12.6099846 23.9580415 12.6099846z"/>
</svg>
